<?xml version="1.0" encoding="UTF-8" standalone="no"?>
<svg
   xmlns:dc="http://purl.org/dc/elements/1.1/"
   xmlns:cc="http://creativecommons.org/ns#"
   xmlns:rdf="http://www.w3.org/1999/02/22-rdf-syntax-ns#"
   xmlns:svg="http://www.w3.org/2000/svg"
   xmlns="http://www.w3.org/2000/svg"
   xmlns:sodipodi="http://sodipodi.sourceforge.net/DTD/sodipodi-0.dtd"
   xmlns:inkscape="http://www.inkscape.org/namespaces/inkscape"
   width="38.364582mm"
   height="10.566415mm"
   viewBox="0 0 38.364582 10.566415"
   version="1.1"
   id="svg1390"
   inkscape:version="1.0.2 (394de47547, 2021-03-26)"
   sodipodi:docname="logo.svg">
  <defs
     id="defs1384" />
  <sodipodi:namedview
     id="base"
     pagecolor="#ffffff"
     bordercolor="#666666"
     borderopacity="1.0"
     inkscape:pageopacity="0.0"
     inkscape:pageshadow="2"
     inkscape:zoom="5.6"
     inkscape:cx="32.489571"
     inkscape:cy="33.749717"
     inkscape:document-units="mm"
     inkscape:current-layer="layer1"
     inkscape:document-rotation="0"
     showgrid="false"
     inkscape:window-width="1294"
     inkscape:window-height="704"
     inkscape:window-x="72"
     inkscape:window-y="27"
     inkscape:window-maximized="1"
     showguides="false"
     inkscape:guide-bbox="true">
    <sodipodi:guide
       position="119.31184,36.257484"
       orientation="0,-1"
       id="guide922" />
  </sodipodi:namedview>
  <metadata
     id="metadata1387">
    <rdf:RDF>
      <cc:Work
         rdf:about="">
        <dc:format>image/svg+xml</dc:format>
        <dc:type
           rdf:resource="http://purl.org/dc/dcmitype/StillImage" />
        <dc:title />
      </cc:Work>
    </rdf:RDF>
  </metadata>
  <g
     inkscape:label="Livello 1"
     inkscape:groupmode="layer"
     id="layer1"
     transform="translate(53.803225,-3.4307527)">
    <g
       id="g994"
       inkscape:export-filename="/home/tomamso/Documenti/Progetti/JNovel/static/image/logo.png"
       inkscape:export-xdpi="47.047253"
       inkscape:export-ydpi="47.047253"
       transform="matrix(0.10622341,0,0,0.10566415,-161.21451,-57.724154)"
       style="stroke-width:94389.5">
      <rect
         style="fill:#00b09b;fill-opacity:1;stroke:#000000;stroke-width:0;stroke-linejoin:bevel;paint-order:fill markers stroke"
         id="rect1884"
         width="100"
         height="100"
         x="1011.1828"
         y="578.76685"
         ry="20" />
      <g
         aria-label="J"
         id="text1888"
         style="font-weight:bold;font-size:93.3333px;line-height:1.25;font-family:sans-serif;-inkscape-font-specification:'sans-serif Bold';letter-spacing:0px;word-spacing:0px;fill:#ffffff;stroke-width:94389.5">
        <path
           d="m 1057.6828,661.62016 c 12.6933,0 19.9733,-7.84 19.9733,-21.65332 v -44.05332 h -12.04 v 44.98665 c 0,6.53333 -3.08,10.08 -8.7733,10.08 -2.7067,0 -6.16,-0.74667 -8.68,-1.96 l -3.4534,9.33333 c 3.92,2.24 8.4,3.26666 12.9734,3.26666 z"
           style="font-style:normal;font-variant:normal;font-weight:bold;font-stretch:normal;font-size:93.3333px;font-family:Cantarell;-inkscape-font-specification:'Cantarell Bold';fill:#ffffff;stroke-width:94389.5"
           id="path901" />
      </g>
      <g
         aria-label="Novel"
         id="text1892"
         style="font-style:normal;font-variant:normal;font-weight:bold;font-stretch:normal;font-size:93.3333px;line-height:1.25;font-family:Cantarell;-inkscape-font-specification:'Cantarell Bold';letter-spacing:0px;word-spacing:0px;fill:#00b09b;fill-opacity:1;stroke-width:94389.5">
        <path
           d="m 1131.1827,662.7868 h 11.3867 v -48.34664 l 31.8266,48.34664 h 13.44 v -64.7733 h -11.48 l -0.093,48.25331 -31.2667,-48.25331 h -13.8133 z"
           style="font-size:93.3333px;stroke-width:94389.5"
           id="path67" />
        <path
           d="m 1221.4681,663.72014 c 14.3733,0 23.9867,-9.8 23.9867,-24.35999 0,-13.90666 -8.8667,-22.86666 -22.4934,-22.86666 -14.3733,0 -23.9866,9.70666 -23.9866,24.35999 0,13.81333 8.7733,22.86666 22.4933,22.86666 z m 1.0267,-10.08 c -7,0 -11.48,-5.41333 -11.48,-13.81333 0,-8.21333 4.1066,-13.25333 10.8266,-13.25333 7,0 11.5734,5.50667 11.5734,14 0,8.02666 -4.2,13.06666 -10.92,13.06666 z"
           style="font-size:93.3333px;stroke-width:94389.5"
           id="path69" />
        <path
           d="m 1266.4927,662.7868 h 11.76 l 17.64,-45.35998 h -11.9467 l -11.2933,33.97332 -10.7334,-33.97332 h -13.0666 z"
           style="font-size:93.3333px;stroke-width:94389.5"
           id="path71" />
        <path
           d="m 1324.2485,663.72014 c 5.32,0 11.1066,-1.12 15.96,-3.17333 l -2.6134,-8.21334 c -3.64,1.49334 -7.6533,2.33334 -11.4799,2.33334 -8.2134,0 -13.16,-3.82667 -14.56,-11.29333 h 29.3999 c 0.28,-1.86667 0.56,-4.66667 0.56,-6.72 0,-12.41333 -7.56,-20.15999 -19.6933,-20.15999 -13.5333,0 -22.5866,9.61333 -22.5866,23.70666 0,14.55999 9.52,23.51999 25.0133,23.51999 z m -3.2667,-38.07999 c 5.88,0 9.3333,3.73333 9.3333,10.26666 h -19.0399 c 0.7466,-6.71999 4.1066,-10.26666 9.7066,-10.26666 z"
           style="font-size:93.3333px;stroke-width:94389.5"
           id="path73" />
        <path
           d="m 1363.6716,663.44014 c 2.8933,0 6.16,-0.56 8.68,-1.68 l -2.52,-7.93333 c -1.0267,0.37333 -2.0533,0.56 -2.8933,0.56 -2.7067,0 -4.2,-1.86667 -4.2,-5.04 V 593.8135 h -11.76 v 57.02664 c 0,7.84 4.76,12.6 12.6933,12.6 z"
           style="font-size:93.3333px;stroke-width:94389.5"
           id="path75" />
      </g>
    </g>
  </g>
</svg>
